<svg width="512" height="512" xml:space="preserve" xmlns="http://www.w3.org/2000/svg"><g style="fill:#fff;fill-opacity:1"><circle style="fill:#fff;fill-opacity:1;stroke:none;stroke-linejoin:round" cx="64" cy="64" r="60"/><circle style="fill:#000;fill-opacity:1;stroke:none;stroke-linejoin:round" cx="192" cy="64" r="60"/><circle style="fill:#262626;fill-opacity:1;stroke:none;stroke-linejoin:round" cx="320" cy="64" r="60"/><circle style="fill:#262626;fill-opacity:1;stroke:none;stroke-width:.666667;stroke-linejoin:round" cx="428" cy="44" r="40"/><circle style="fill:#fff;fill-opacity:1;stroke:none;stroke-width:.666667;stroke-linejoin:round" cx="44" cy="172" r="40"/><circle style="fill:#fff;fill-opacity:1;stroke:none;stroke-width:.5;stroke-linejoin:round" cx="286" cy="162" r="30"/><circle style="fill:#fff;fill-opacity:1;stroke:none;stroke-width:.266667;stroke-linejoin:round" cx="108" cy="232" r="16"/><circle style="fill:#fff;fill-opacity:1;stroke:none;stroke-width:.133334;stroke-linejoin:round" cx="140" cy="240" r="8"/><circle style="fill:#000;fill-opacity:1;stroke:none;stroke-width:.133334;stroke-linejoin:round" cx="68" cy="228" r="8"/><circle style="fill:#000;fill-opacity:1;stroke:none;stroke-width:.200001;stroke-linejoin:round" cx="168" cy="228" r="12"/><circle style="fill:#7f7f7f;fill-opacity:1;stroke:none;stroke-width:.066667;stroke-linejoin:round" cx="136" cy="220" r="4"/><circle style="fill:#999;fill-opacity:1;stroke:none;stroke-width:.100001;stroke-linejoin:round" cx="346" cy="210" r="6"/><circle style="fill:#262626;fill-opacity:1;stroke:none;stroke-width:.133335;stroke-linejoin:round" cx="348" cy="232" r="8"/><circle style="fill:#000;fill-opacity:1;stroke:none;stroke-width:.666667;stroke-linejoin:round" cx="44" cy="292" r="40"/><rect style="fill:#fff;fill-opacity:1;stroke:none;stroke-linejoin:round" width="48" height="24" x="324" y="132" ry="4"/><rect style="fill:red;fill-opacity:1;stroke:none;stroke-linejoin:round" width="48" height="24" x="4" y="220" ry="4"/><path style="fill:#fff;fill-opacity:1;stroke:none;stroke-linejoin:round" d="M328 164c-2.216 0-4 1.784-4 4v16c0 2.216 1.784 4 4 4h40c2.216 0 4-1.784 4-4v-16c0-2.216-1.784-4-4-4Zm16.887 2.436a1.11.781 0 0 1 .945.173l21.09 12.739A3.093 2.176 0 0 1 368 181v.078a.925.651 0 0 1-1.234.613l-13.426-3.357A1.003.706 0 0 0 352 179v6.283a1.096.771 0 0 1-1.824.576l-21.113-13.195A3.163 2.226 0 0 1 328 171v-.107a.79.556 0 0 1 1.049-.528l13.832 3.364a.844.594 0 0 0 1.119-.563v-5.965a1.11.781 0 0 1 .887-.765Z"/><path style="opacity:1;fill:#262626;fill-opacity:1;stroke:none;stroke-linejoin:round" d="m430.984 92.96-40.606 15.861A3.717 3.717 79.332 0 0 391.73 116h88.528a3.719 3.719 100.668 0 0 1.353-7.183l-40.595-15.858a13.786 13.786 0 0 0-10.032 0Z" transform="translate(0 -.007)"/><path style="fill:#262626;fill-opacity:1;stroke:none;stroke-linejoin:round" d="m430.984 92.96-40.606 15.861A3.717 3.717 79.332 0 0 391.73 116h88.528a3.719 3.719 100.668 0 0 1.353-7.183l-40.595-15.858a13.786 13.786 0 0 0-10.032 0Z" transform="matrix(1 0 0 -1 -.013 240)"/><g style="fill:#fff;fill-opacity:1"><path d="M480-280q-83 0-141.5-58.5T280-480q0-83 58.5-141.5T480-680q83 0 141.5 58.5T680-480q0 83-58.5 141.5T480-280ZM200-450H40v-60h160Zm720 0H760v-60h160ZM450-760v-160h60v160Zm0 720v-160h60v160ZM262-658l-100-97 43-44 96 100Zm494 496-98-100 41-41 99 98Zm-99-537 98-99 44 42-99 98ZM162-205l99-98 42 42-98 99Z" style="fill:#fff" transform="matrix(.07979 .03305 -.03305 .07979 -12.257 400.48)"/></g><path d="m21.05 497.1 14.15-14.15-2.3-2.25-11.85 11.85-6-6-2.25 2.25ZM24 508q-4.1 0-7.75-1.575-3.65-1.575-6.375-4.3-2.725-2.725-4.3-6.375Q4 492.1 4 488q0-4.15 1.575-7.8 1.575-3.65 4.3-6.35 2.725-2.7 6.375-4.275Q19.9 468 24 468q4.15 0 7.8 1.575 3.65 1.575 6.35 4.275 2.7 2.7 4.275 6.35Q44 483.85 44 488q0 4.1-1.575 7.75-1.575 3.65-4.275 6.375t-6.35 4.3Q28.15 508 24 508ZM51 508q-1.237 0-2.118-.882Q48 506.238 48 505v-21.7q0-1.238.882-2.119.88-.881 2.118-.881h3.5v-4.8q0-3.942 2.78-6.721T64.005 466q3.945 0 6.72 2.779T73.5 475.5v4.8H77q1.237 0 2.119.881.881.882.881 2.119V505q0 1.238-.881 2.118Q78.237 508 77 508Zm13.008-10q1.592 0 2.717-1.101 1.125-1.102 1.125-2.649 0-1.5-1.133-2.725-1.134-1.225-2.725-1.225-1.592 0-2.717 1.225t-1.125 2.75q0 1.525 1.133 2.625 1.134 1.1 2.725 1.1ZM57.5 480.3h13v-4.8q0-2.709-1.894-4.604-1.894-1.896-4.6-1.896-2.706 0-4.606 1.896-1.9 1.895-1.9 4.604ZM99.4 508l-1-6.3q-.95-.35-2-.95t-1.85-1.25l-5.9 2.7L84 494l5.4-3.95q-.1-.45-.125-1.025-.025-.575-.025-1.025 0-.45.025-1.025t.125-1.025L84 482l4.65-8.2 5.9 2.7q.8-.65 1.85-1.25t2-.9l1-6.35h9.2l1 6.3q.95.35 2.025.925 1.075.575 1.825 1.275l5.9-2.7L124 482l-5.4 3.85q.1.5.125 1.075.025.575.025 1.075t-.025 1.05q-.025.55-.125 1.05l5.4 3.9-4.65 8.2-5.9-2.7q-.8.65-1.825 1.275-1.025.625-2.025.925l-1 6.3Zm4.6-13.5q2.7 0 4.6-1.9 1.9-1.9 1.9-4.6 0-2.7-1.9-4.6-1.9-1.9-4.6-1.9-2.7 0-4.6 1.9-1.9 1.9-1.9 4.6 0 2.7 1.9 4.6 1.9 1.9 4.6 1.9Z" style="fill:#fff;stroke-width:.05"/><path d="M484-80q-84 0-157.5-32t-128-86.5Q144-253 112-326.5T80-484q0-146 93-257.5T410-880q-18 98 11 192.5T521-522q71 71 165.5 100.5T880-410q-26 144-138 237T484-80Z" transform="matrix(.05 0 0 .05 124 512)" style="fill:#fff"/><path d="M480-80q-83 0-156-31.5T197-197q-54-54-85.5-127T80-480q0-83 31.5-156T197-763q54-54 127-85.5T480-880q83 0 156 31.5T763-763q54 54 85.5 127T880-480q0 83-31.5 156T763-197q-54 54-127 85.5T480-80Zm0-160q100 0 170-70t70-170q0-51-19-94.5T650-650l-42 42q25 24 38.5 57t13.5 71q0 75-52.5 127.5T480-300q-75 0-127.5-52.5T300-480q0-38 14.5-71t38.5-57l-43-42q-32 32-51 75.5T240-480q0 100 70 170t170 70Zm-30-240h60v-240h-60Z" transform="matrix(.05 0 0 .05 168 512)" style="fill:#fff"/><path d="M238.025 508q-6.55 0-11.275-4.725-4.725-4.725-4.725-11.275v-2.25l-4 4-1.95-1.95 7.45-7.45 7.45 7.45-1.95 1.95-4-4V492q0 5.35 3.825 9.175 3.825 3.825 9.175 3.825 1.45 0 2.75-.25t2.45-.75l2.15 2.15q-1.8 1-3.625 1.425-1.825.425-3.725.425Zm14.45-8.45-7.45-7.45 2-2 3.95 3.95V492q0-5.35-3.825-9.175-3.825-3.825-9.175-3.825-1.45 0-2.75.275t-2.45.675l-2.15-2.15q1.8-1 3.625-1.4 1.825-.4 3.725-.4 6.55 0 11.275 4.725 4.725 4.725 4.725 11.275v2.15l4-4 1.95 1.95Z" style="fill:#fff;stroke-width:.05"/><g style="fill:#fff"><path d="M4 416h48v48H4Zm0 0h48v48H4Z" fill="none"/><path d="m6 434 4 4c9.94-9.94 26.06-9.94 36 0l4-4c-12.14-12.14-31.84-12.14-44 0Zm16 16 6 6 6-6c-3.3-3.32-8.68-3.32-12 0Zm-8-8 4 4c5.52-5.52 14.48-5.52 20 0l4-4c-7.72-7.72-20.26-7.72-28 0Z"/></g><g style="fill:#fff;fill-opacity:1"><path d="M384 152h48v48h-48Zm0 0h48v48h-48Z" fill="none"/><path d="m386 170 4 4c9.94-9.94 26.06-9.94 36 0l4-4c-12.14-12.14-31.84-12.14-44 0Zm16 16 6 6 6-6c-3.3-3.32-8.68-3.32-12 0Zm-8-8 4 4c5.52-5.52 14.48-5.52 20 0l4-4c-7.72-7.72-20.26-7.72-28 0Z"/></g><g style="fill:#fff;fill-opacity:1"><path d="M56 416h48v48H56Zm0 0h48v48H56Z" fill="none"/><path d="m66 442 4 4c5.52-5.52 14.48-5.52 20 0l4-4c-7.72-7.72-20.26-7.72-28 0ZM74 450l6 6 6-6c-3.3-3.32-8.68-3.32-12 0Z"/><path d="m1 9 2 2c4.97-4.97 13.03-4.97 18 0l2-2C16.93 2.93 7.08 2.93 1 9Z" style="fill:#a7a7a7;fill-opacity:1" transform="matrix(2 0 0 2 56 416)"/></g><g style="fill:#fff;fill-opacity:1"><path d="M108 416h48v48h-48Zm0 0h48v48h-48Z" fill="none"/><path d="m5 13 2 2a7.074 7.074 0 0 1 10 0l2-2C15.14 9.14 8.87 9.14 5 13Z" style="fill:#a7a7a7;fill-opacity:1" transform="matrix(2 0 0 2 108 416)"/><path d="m126 450 6 6 6-6c-3.3-3.32-8.68-3.32-12 0Z"/><path d="m1 9 2 2c4.97-4.97 13.03-4.97 18 0l2-2C16.93 2.93 7.08 2.93 1 9Z" style="fill:#a7a7a7;fill-opacity:1" transform="matrix(2 0 0 2 108 416)"/><g style="fill:#fff"><path d="M160 416h48v48h-48Z" fill="none"/><path d="m202 438 4-4c-7.46-7.46-17.74-10.3-27.4-8.62l5.16 5.16c6.6-.04 13.22 2.44 18.24 7.46Zm-4 4c-2.16-2.16-4.72-3.7-7.44-4.66l6.04 6.04Zm-20 8 6 6 6-6c-3.3-3.32-8.68-3.32-12 0Zm-11.18-30.72L164 422.1l6.1 6.1a31.405 31.405 0 0 0-8.1 5.8l4 4c2.46-2.46 5.3-4.32 8.34-5.56l4.48 4.48c-3.24.86-6.28 2.56-8.82 5.08l4 4c2.7-2.7 6.22-4.08 9.78-4.12l14.16 14.16 2.82-2.82Z"/></g></g><path d="M560-131v-62q97-28 158.5-107.5T780-481q0-101-61-181T560-769v-62q124 28 202 125.5T840-481q0 127-78 224.5T560-131ZM120-360v-240h160l200-200v640L280-360Zm420 48v-337q55 17 87.5 64T660-480q0 57-33 104t-87 64Z" style="fill:#fff" transform="matrix(.09969 0 0 .09969 74.056 425.996)"/><path d="M140-240q-24 0-42-18t-18-42v-360q0-24 18-42t42-18h680q24 0 42 18t18 42v360q0 24-18 42t-42 18Zm150-106h60v-104h104v-60H350v-104h-60v104H186v60h104Zm303-18q18 0 31.5-13.5T638-409q0-18-13.5-31.5T593-454q-18 0-31.5 13.5T548-409q0 18 13.5 31.5T593-364Zm90-143q18 0 31.5-13.5T728-552q0-18-13.5-31.5T683-597q-18 0-31.5 13.5T638-552q0 18 13.5 31.5T683-507Z" transform="translate(357.363 263.847) scale(.08312)" style="fill:#fff"/><path d="M182 413.65q-7.47 0-12.735-5.265T164 395.65q0-4.856 2.374-9.054 2.373-4.199 6.527-6.77V351.54q0-3.79 2.647-6.445 2.647-2.654 6.428-2.654 3.782 0 6.453 2.654 2.67 2.654 2.67 6.445v28.286q4.154 2.571 6.527 6.77Q200 390.794 200 395.65q0 7.47-5.265 12.735T182 413.65Zm-3.165-44.406h6.33V351.54q0-1.345-.91-2.255-.91-.91-2.255-.91-1.345 0-2.255.91-.91.91-.91 2.255Z" style="fill:#fff;stroke-width:.0989011"/><path d="M251.995 208H195.93v32h56.066Zm-.445-4c1.187 0 2.225.444 3.115 1.333.89.89 1.335 1.926 1.335 3.111v31.112c0 1.185-.445 2.222-1.335 3.11-.89.89-1.928 1.334-3.115 1.334h-55.435c-1.187 0-2.225-.444-3.115-1.333-.89-.89-1.07-1.926-1.07-3.111v-7.546h-.222c-.989 0-1.854-.37-2.596-1.11-.741-.741-1.112-1.606-1.112-2.593v-8.582c0-1.037.37-1.914 1.112-2.63.742-.716 1.607-1.074 2.596-1.074h.223v-7.577c0-1.185.179-2.222 1.069-3.11.89-.89 1.928-1.334 3.115-1.334Z" style="fill:#fff;stroke-width:.0741177"/><path d="M327.995 208H271.93v32h56.066Zm-.445-4c1.187 0 2.225.444 3.115 1.333.89.89 1.335 1.926 1.335 3.111v31.112c0 1.185-.445 2.222-1.335 3.11-.89.89-1.928 1.334-3.115 1.334h-55.435c-1.187 0-2.225-.444-3.115-1.333-.89-.89-1.07-1.926-1.07-3.111v-7.546h-.222c-.989 0-1.854-.37-2.596-1.11-.741-.741-1.112-1.606-1.112-2.593v-8.582c0-1.037.37-1.914 1.112-2.63.742-.716 1.607-1.074 2.596-1.074h.223v-7.577c0-1.185.179-2.222 1.069-3.11.89-.89 1.928-1.334 3.115-1.334Z" style="fill:red;fill-opacity:1;stroke-width:.0741177"/><path style="opacity:1;fill:red;fill-opacity:.314488;stroke:none;stroke-linejoin:round" d="M0 0h1v1H0zM0 508h4v4H0zM508 508h4v4h-4zM508 0h4v4h-4z"/><path d="m916-24 156-156-40-40-86 86v-201h-60v201l-86-86-40 40ZM616 126q-24.75 0-42.37-17.63Q556 90.75 556 66v-529q0-9.88 3-19.06 3-9.18 9-16.94l52-71q8-11 20.94-17.5Q653.88-594 668-594h495q14.12 0 27.06 6.5T1211-570l53 71q6 7.76 9 16.94 3 9.18 3 19.06V66q0 24.75-17.62 42.37Q1240.75 126 1216 126Zm17-614h565l-36.41-46H669Z" transform="matrix(.05 0 0 .05 238.175 499.725)" style="fill:#fff"/><path d="M440-80v-304L256-200l-56-56 224-224-224-224 56-56 184 184v-304h40l228 228-172 172 172 172L480-80Zm80-496 76-76-76-74Zm0 342 76-74-76-76Z" transform="matrix(.04 0 0 .04 217.84 459.2)" style="fill:#fff"/><path d="M792-56 624-224 480-80h-40v-304L256-200l-56-56 196-196L56-792l56-56 736 736ZM520-234l46-46-46-46Zm44-274-56-56 88-88-76-74v174l-80-80v-248h40l228 228Z" transform="translate(270.014 459.168) scale(.03972)" style="fill:#fff"/><path d="M360-120H200q-33 0-56.5-23.5T120-200v-280q0-75 28.5-140.5t77-114q48.5-48.5 114-77T480-840q75 0 140.5 28.5t114 77q48.5 48.5 77 114T840-480v280q0 33-23.5 56.5T760-120H600v-320h160v-40q0-117-81.5-198.5T480-760q-117 0-198.5 81.5T200-480v40h160Z" transform="matrix(.05556 0 0 .05556 313.333 466.667)" style="fill:#fff"/><path d="M189-160q-60 0-102.5-43T42-307q0-9 1-18t3-18l84-336q14-54 57-87.5t98-33.5h390q55 0 98 33.5t57 87.5l84 336q2 9 3.5 18.5T919-306q0 61-43.5 103.5T771-160q-42 0-78-22t-54-60l-28-58q-5-10-15-15t-21-5H385q-11 0-21 5t-15 15l-28 58q-18 38-54 60t-78 22Zm351-360q17 0 28.5-11.5T580-560q0-17-11.5-28.5T540-600q-17 0-28.5 11.5T500-560q0 17 11.5 28.5T540-520Zm80-80q17 0 28.5-11.5T660-640q0-17-11.5-28.5T620-680q-17 0-28.5 11.5T580-640q0 17 11.5 28.5T620-600Zm0 160q17 0 28.5-11.5T660-480q0-17-11.5-28.5T620-520q-17 0-28.5 11.5T580-480q0 17 11.5 28.5T620-440Zm80-80q17 0 28.5-11.5T740-560q0-17-11.5-28.5T700-600q-17 0-28.5 11.5T660-560q0 17 11.5 28.5T700-520Zm-360 60q13 0 21.5-8.5T370-490v-40h40q13 0 21.5-8.5T440-560q0-13-8.5-21.5T410-590h-40v-40q0-13-8.5-21.5T340-660q-13 0-21.5 8.5T310-630v40h-40q-13 0-21.5 8.5T240-560q0 13 8.5 21.5T270-530h40v40q0 13 8.5 21.5T340-460Z" transform="translate(370.084 461.893) scale(.04561)" style="fill:#fff"/></g></svg>